<mxfile host="app.diagrams.net" modified="2022-03-18T23:10:36.471Z" agent="5.0 (X11)" etag="Mn1V-E0s9MOClgo1uoaI" version="17.1.0" type="github">
  <diagram id="C5RBs43oDa-KdzZeNtuy" name="Page-1">
    <mxGraphModel dx="868" dy="481" grid="0" gridSize="10" guides="1" tooltips="1" connect="1" arrows="1" fold="1" page="1" pageScale="1" pageWidth="827" pageHeight="1169" background="#F2B067" math="0" shadow="0">
      <root>
        <mxCell id="WIyWlLk6GJQsqaUBKTNV-0" />
        <mxCell id="WIyWlLk6GJQsqaUBKTNV-1" parent="WIyWlLk6GJQsqaUBKTNV-0" />
        <mxCell id="zkfFHV4jXpPFQw0GAbJ--0" value="PlataformaDeEnsino" style="swimlane;fontStyle=1;align=center;verticalAlign=top;childLayout=stackLayout;horizontal=1;startSize=26;horizontalStack=0;resizeParent=1;resizeLast=0;collapsible=1;marginBottom=0;rounded=0;shadow=0;strokeWidth=1;fillColor=#606C38;fontSize=14;fontColor=#FFFFFF;" parent="WIyWlLk6GJQsqaUBKTNV-1" vertex="1">
          <mxGeometry x="40" y="20" width="300" height="172" as="geometry">
            <mxRectangle x="220" y="120" width="160" height="26" as="alternateBounds" />
          </mxGeometry>
        </mxCell>
        <mxCell id="zkfFHV4jXpPFQw0GAbJ--1" value="- pessoas: List &lt;Pessoa&gt;" style="text;align=left;verticalAlign=top;spacingLeft=4;spacingRight=4;overflow=hidden;rotatable=0;points=[[0,0.5],[1,0.5]];portConstraint=eastwest;" parent="zkfFHV4jXpPFQw0GAbJ--0" vertex="1">
          <mxGeometry y="26" width="300" height="26" as="geometry" />
        </mxCell>
        <mxCell id="zkfFHV4jXpPFQw0GAbJ--2" value="- disciplinas: List &lt;Disciplina&gt;" style="text;align=left;verticalAlign=top;spacingLeft=4;spacingRight=4;overflow=hidden;rotatable=0;points=[[0,0.5],[1,0.5]];portConstraint=eastwest;rounded=0;shadow=0;html=0;strokeWidth=1;strokeColor=none;" parent="zkfFHV4jXpPFQw0GAbJ--0" vertex="1">
          <mxGeometry y="52" width="300" height="26" as="geometry" />
        </mxCell>
        <mxCell id="zkfFHV4jXpPFQw0GAbJ--4" value="" style="line;html=1;strokeWidth=1;align=left;verticalAlign=middle;spacingTop=-1;spacingLeft=3;spacingRight=3;rotatable=0;labelPosition=right;points=[];portConstraint=eastwest;" parent="zkfFHV4jXpPFQw0GAbJ--0" vertex="1">
          <mxGeometry y="78" width="300" height="8" as="geometry" />
        </mxCell>
        <mxCell id="zkfFHV4jXpPFQw0GAbJ--5" value="+ cadastrarPessoa (Pessoa pessoa)&#xa;+ buscarPessoaNome(String nome): List &lt;Pessoa&gt;&#xa;+ cadastrarDisciplina (Disciplina disciplina)&#xa;+ deletePessoa(Pessoa pessoa)&#xa;+ deleteDisciplina(Disciplina disciplina)&#xa;&#xa;&#xa;" style="text;align=left;verticalAlign=top;spacingLeft=4;spacingRight=4;overflow=hidden;rotatable=0;points=[[0,0.5],[1,0.5]];portConstraint=eastwest;" parent="zkfFHV4jXpPFQw0GAbJ--0" vertex="1">
          <mxGeometry y="86" width="300" height="84" as="geometry" />
        </mxCell>
        <mxCell id="zkfFHV4jXpPFQw0GAbJ--17" value="Pessoa" style="swimlane;fontStyle=1;align=center;verticalAlign=top;childLayout=stackLayout;horizontal=1;startSize=26;horizontalStack=0;resizeParent=1;resizeLast=0;collapsible=1;marginBottom=0;rounded=0;shadow=0;strokeWidth=1;fillColor=#606C38;fontSize=14;fontColor=#FFFFFF;" parent="WIyWlLk6GJQsqaUBKTNV-1" vertex="1">
          <mxGeometry x="419" y="29" width="220" height="384" as="geometry">
            <mxRectangle x="550" y="140" width="160" height="26" as="alternateBounds" />
          </mxGeometry>
        </mxCell>
        <mxCell id="zkfFHV4jXpPFQw0GAbJ--18" value="- nome: String" style="text;align=left;verticalAlign=top;spacingLeft=4;spacingRight=4;overflow=hidden;rotatable=0;points=[[0,0.5],[1,0.5]];portConstraint=eastwest;" parent="zkfFHV4jXpPFQw0GAbJ--17" vertex="1">
          <mxGeometry y="26" width="220" height="26" as="geometry" />
        </mxCell>
        <mxCell id="zkfFHV4jXpPFQw0GAbJ--19" value="- email: String" style="text;align=left;verticalAlign=top;spacingLeft=4;spacingRight=4;overflow=hidden;rotatable=0;points=[[0,0.5],[1,0.5]];portConstraint=eastwest;rounded=0;shadow=0;html=0;" parent="zkfFHV4jXpPFQw0GAbJ--17" vertex="1">
          <mxGeometry y="52" width="220" height="26" as="geometry" />
        </mxCell>
        <mxCell id="Sozwrkm8LUnKUUZ9vT8I-0" value="- senha: String" style="text;align=left;verticalAlign=top;spacingLeft=4;spacingRight=4;overflow=hidden;rotatable=0;points=[[0,0.5],[1,0.5]];portConstraint=eastwest;rounded=0;shadow=0;html=0;" parent="zkfFHV4jXpPFQw0GAbJ--17" vertex="1">
          <mxGeometry y="78" width="220" height="26" as="geometry" />
        </mxCell>
        <mxCell id="Sozwrkm8LUnKUUZ9vT8I-1" value="- professor: boolean" style="text;align=left;verticalAlign=top;spacingLeft=4;spacingRight=4;overflow=hidden;rotatable=0;points=[[0,0.5],[1,0.5]];portConstraint=eastwest;rounded=0;shadow=0;html=0;" parent="zkfFHV4jXpPFQw0GAbJ--17" vertex="1">
          <mxGeometry y="104" width="220" height="26" as="geometry" />
        </mxCell>
        <mxCell id="Sozwrkm8LUnKUUZ9vT8I-19" value="- aluno: boolean" style="text;align=left;verticalAlign=top;spacingLeft=4;spacingRight=4;overflow=hidden;rotatable=0;points=[[0,0.5],[1,0.5]];portConstraint=eastwest;rounded=0;shadow=0;html=0;" parent="zkfFHV4jXpPFQw0GAbJ--17" vertex="1">
          <mxGeometry y="130" width="220" height="26" as="geometry" />
        </mxCell>
        <mxCell id="zkfFHV4jXpPFQw0GAbJ--23" value="" style="line;html=1;strokeWidth=1;align=left;verticalAlign=middle;spacingTop=-1;spacingLeft=3;spacingRight=3;rotatable=0;labelPosition=right;points=[];portConstraint=eastwest;" parent="zkfFHV4jXpPFQw0GAbJ--17" vertex="1">
          <mxGeometry y="156" width="220" height="13" as="geometry" />
        </mxCell>
        <mxCell id="zkfFHV4jXpPFQw0GAbJ--24" value="+ getNome(): String" style="text;align=left;verticalAlign=top;spacingLeft=4;spacingRight=4;overflow=hidden;rotatable=0;points=[[0,0.5],[1,0.5]];portConstraint=eastwest;" parent="zkfFHV4jXpPFQw0GAbJ--17" vertex="1">
          <mxGeometry y="169" width="220" height="26" as="geometry" />
        </mxCell>
        <mxCell id="zkfFHV4jXpPFQw0GAbJ--25" value="+ setNome(String novoNome)" style="text;align=left;verticalAlign=top;spacingLeft=4;spacingRight=4;overflow=hidden;rotatable=0;points=[[0,0.5],[1,0.5]];portConstraint=eastwest;" parent="zkfFHV4jXpPFQw0GAbJ--17" vertex="1">
          <mxGeometry y="195" width="220" height="26" as="geometry" />
        </mxCell>
        <mxCell id="Sozwrkm8LUnKUUZ9vT8I-2" value="+ getEmail(): String" style="text;align=left;verticalAlign=top;spacingLeft=4;spacingRight=4;overflow=hidden;rotatable=0;points=[[0,0.5],[1,0.5]];portConstraint=eastwest;" parent="zkfFHV4jXpPFQw0GAbJ--17" vertex="1">
          <mxGeometry y="221" width="220" height="26" as="geometry" />
        </mxCell>
        <mxCell id="Sozwrkm8LUnKUUZ9vT8I-3" value="+ setEmail(String novoEmail)" style="text;align=left;verticalAlign=top;spacingLeft=4;spacingRight=4;overflow=hidden;rotatable=0;points=[[0,0.5],[1,0.5]];portConstraint=eastwest;" parent="zkfFHV4jXpPFQw0GAbJ--17" vertex="1">
          <mxGeometry y="247" width="220" height="26" as="geometry" />
        </mxCell>
        <mxCell id="Sozwrkm8LUnKUUZ9vT8I-5" value="+ getSenha(): String" style="text;align=left;verticalAlign=top;spacingLeft=4;spacingRight=4;overflow=hidden;rotatable=0;points=[[0,0.5],[1,0.5]];portConstraint=eastwest;" parent="zkfFHV4jXpPFQw0GAbJ--17" vertex="1">
          <mxGeometry y="273" width="220" height="26" as="geometry" />
        </mxCell>
        <mxCell id="Sozwrkm8LUnKUUZ9vT8I-6" value="+ setSenha(String novaSenha)" style="text;align=left;verticalAlign=top;spacingLeft=4;spacingRight=4;overflow=hidden;rotatable=0;points=[[0,0.5],[1,0.5]];portConstraint=eastwest;" parent="zkfFHV4jXpPFQw0GAbJ--17" vertex="1">
          <mxGeometry y="299" width="220" height="26" as="geometry" />
        </mxCell>
        <mxCell id="Sozwrkm8LUnKUUZ9vT8I-20" value="+ getAluno(): boolean" style="text;align=left;verticalAlign=top;spacingLeft=4;spacingRight=4;overflow=hidden;rotatable=0;points=[[0,0.5],[1,0.5]];portConstraint=eastwest;" parent="zkfFHV4jXpPFQw0GAbJ--17" vertex="1">
          <mxGeometry y="325" width="220" height="26" as="geometry" />
        </mxCell>
        <mxCell id="Sozwrkm8LUnKUUZ9vT8I-21" value="+ getProfessor(): boolean" style="text;align=left;verticalAlign=top;spacingLeft=4;spacingRight=4;overflow=hidden;rotatable=0;points=[[0,0.5],[1,0.5]];portConstraint=eastwest;" parent="zkfFHV4jXpPFQw0GAbJ--17" vertex="1">
          <mxGeometry y="351" width="220" height="26" as="geometry" />
        </mxCell>
        <mxCell id="iCDL-A0NoCfyrDRCizDj-4" value="" style="endArrow=classic;html=1;rounded=0;strokeWidth=2;strokeColor=#606C38;" parent="WIyWlLk6GJQsqaUBKTNV-1" target="Sozwrkm8LUnKUUZ9vT8I-7" edge="1">
          <mxGeometry width="50" height="50" relative="1" as="geometry">
            <mxPoint x="190" y="192" as="sourcePoint" />
            <mxPoint x="440.02" y="440" as="targetPoint" />
          </mxGeometry>
        </mxCell>
        <mxCell id="iCDL-A0NoCfyrDRCizDj-5" value="" style="endArrow=classic;html=1;rounded=0;exitX=1;exitY=0.5;exitDx=0;exitDy=0;entryX=0;entryY=0.5;entryDx=0;entryDy=0;strokeWidth=2;strokeColor=#606C38;" parent="WIyWlLk6GJQsqaUBKTNV-1" source="zkfFHV4jXpPFQw0GAbJ--2" target="Sozwrkm8LUnKUUZ9vT8I-0" edge="1">
          <mxGeometry width="50" height="50" relative="1" as="geometry">
            <mxPoint x="380" y="154" as="sourcePoint" />
            <mxPoint x="430" y="104" as="targetPoint" />
          </mxGeometry>
        </mxCell>
        <mxCell id="Sozwrkm8LUnKUUZ9vT8I-7" value="Disciplina" style="swimlane;fontStyle=1;align=center;verticalAlign=top;childLayout=stackLayout;horizontal=1;startSize=26;horizontalStack=0;resizeParent=1;resizeLast=0;collapsible=1;marginBottom=0;rounded=0;shadow=0;strokeWidth=1;fillColor=#606C38;fontSize=14;fontColor=#FFFFFF;" parent="WIyWlLk6GJQsqaUBKTNV-1" vertex="1">
          <mxGeometry x="61" y="249" width="320" height="439" as="geometry">
            <mxRectangle x="550" y="140" width="160" height="26" as="alternateBounds" />
          </mxGeometry>
        </mxCell>
        <mxCell id="Sozwrkm8LUnKUUZ9vT8I-8" value="- nome: String" style="text;align=left;verticalAlign=top;spacingLeft=4;spacingRight=4;overflow=hidden;rotatable=0;points=[[0,0.5],[1,0.5]];portConstraint=eastwest;" parent="Sozwrkm8LUnKUUZ9vT8I-7" vertex="1">
          <mxGeometry y="26" width="320" height="26" as="geometry" />
        </mxCell>
        <mxCell id="Sozwrkm8LUnKUUZ9vT8I-9" value="- professor: List &lt;Professor&gt;" style="text;align=left;verticalAlign=top;spacingLeft=4;spacingRight=4;overflow=hidden;rotatable=0;points=[[0,0.5],[1,0.5]];portConstraint=eastwest;rounded=0;shadow=0;html=0;" parent="Sozwrkm8LUnKUUZ9vT8I-7" vertex="1">
          <mxGeometry y="52" width="320" height="26" as="geometry" />
        </mxCell>
        <mxCell id="Sozwrkm8LUnKUUZ9vT8I-10" value="- alunos: List &lt;Aluno&gt;" style="text;align=left;verticalAlign=top;spacingLeft=4;spacingRight=4;overflow=hidden;rotatable=0;points=[[0,0.5],[1,0.5]];portConstraint=eastwest;rounded=0;shadow=0;html=0;fillColor=none;" parent="Sozwrkm8LUnKUUZ9vT8I-7" vertex="1">
          <mxGeometry y="78" width="320" height="26" as="geometry" />
        </mxCell>
        <mxCell id="Sozwrkm8LUnKUUZ9vT8I-59" value="- curso: String" style="text;align=left;verticalAlign=top;spacingLeft=4;spacingRight=4;overflow=hidden;rotatable=0;points=[[0,0.5],[1,0.5]];portConstraint=eastwest;rounded=0;shadow=0;html=0;" parent="Sozwrkm8LUnKUUZ9vT8I-7" vertex="1">
          <mxGeometry y="104" width="320" height="26" as="geometry" />
        </mxCell>
        <mxCell id="Sozwrkm8LUnKUUZ9vT8I-60" value="- Semestre: Int" style="text;align=left;verticalAlign=top;spacingLeft=4;spacingRight=4;overflow=hidden;rotatable=0;points=[[0,0.5],[1,0.5]];portConstraint=eastwest;rounded=0;shadow=0;html=0;" parent="Sozwrkm8LUnKUUZ9vT8I-7" vertex="1">
          <mxGeometry y="130" width="320" height="26" as="geometry" />
        </mxCell>
        <mxCell id="Sozwrkm8LUnKUUZ9vT8I-12" value="" style="line;html=1;strokeWidth=1;align=left;verticalAlign=middle;spacingTop=-1;spacingLeft=3;spacingRight=3;rotatable=0;labelPosition=right;points=[];portConstraint=eastwest;" parent="Sozwrkm8LUnKUUZ9vT8I-7" vertex="1">
          <mxGeometry y="156" width="320" height="16" as="geometry" />
        </mxCell>
        <mxCell id="Sozwrkm8LUnKUUZ9vT8I-13" value="+ cadastrarAlunoDisciplina(Aluno aluno)" style="text;align=left;verticalAlign=top;spacingLeft=4;spacingRight=4;overflow=hidden;rotatable=0;points=[[0,0.5],[1,0.5]];portConstraint=eastwest;" parent="Sozwrkm8LUnKUUZ9vT8I-7" vertex="1">
          <mxGeometry y="172" width="320" height="26" as="geometry" />
        </mxCell>
        <mxCell id="Sozwrkm8LUnKUUZ9vT8I-14" value="+ cadastrarProfessorDisciplina(Professor professor)" style="text;align=left;verticalAlign=top;spacingLeft=4;spacingRight=4;overflow=hidden;rotatable=0;points=[[0,0.5],[1,0.5]];portConstraint=eastwest;" parent="Sozwrkm8LUnKUUZ9vT8I-7" vertex="1">
          <mxGeometry y="198" width="320" height="26" as="geometry" />
        </mxCell>
        <mxCell id="Sozwrkm8LUnKUUZ9vT8I-15" value="+ getNome(): String" style="text;align=left;verticalAlign=top;spacingLeft=4;spacingRight=4;overflow=hidden;rotatable=0;points=[[0,0.5],[1,0.5]];portConstraint=eastwest;" parent="Sozwrkm8LUnKUUZ9vT8I-7" vertex="1">
          <mxGeometry y="224" width="320" height="26" as="geometry" />
        </mxCell>
        <mxCell id="Sozwrkm8LUnKUUZ9vT8I-16" value="+ setNome(String novoNome)" style="text;align=left;verticalAlign=top;spacingLeft=4;spacingRight=4;overflow=hidden;rotatable=0;points=[[0,0.5],[1,0.5]];portConstraint=eastwest;" parent="Sozwrkm8LUnKUUZ9vT8I-7" vertex="1">
          <mxGeometry y="250" width="320" height="26" as="geometry" />
        </mxCell>
        <mxCell id="Sozwrkm8LUnKUUZ9vT8I-18" value="+ getCurso(): String" style="text;align=left;verticalAlign=top;spacingLeft=4;spacingRight=4;overflow=hidden;rotatable=0;points=[[0,0.5],[1,0.5]];portConstraint=eastwest;" parent="Sozwrkm8LUnKUUZ9vT8I-7" vertex="1">
          <mxGeometry y="276" width="320" height="26" as="geometry" />
        </mxCell>
        <mxCell id="Sozwrkm8LUnKUUZ9vT8I-61" value="+ setCurso(String novoCurso)" style="text;align=left;verticalAlign=top;spacingLeft=4;spacingRight=4;overflow=hidden;rotatable=0;points=[[0,0.5],[1,0.5]];portConstraint=eastwest;" parent="Sozwrkm8LUnKUUZ9vT8I-7" vertex="1">
          <mxGeometry y="302" width="320" height="26" as="geometry" />
        </mxCell>
        <mxCell id="Sozwrkm8LUnKUUZ9vT8I-17" value="+ getSemestre(): int" style="text;align=left;verticalAlign=top;spacingLeft=4;spacingRight=4;overflow=hidden;rotatable=0;points=[[0,0.5],[1,0.5]];portConstraint=eastwest;" parent="Sozwrkm8LUnKUUZ9vT8I-7" vertex="1">
          <mxGeometry y="328" width="320" height="26" as="geometry" />
        </mxCell>
        <mxCell id="Sozwrkm8LUnKUUZ9vT8I-62" value="+ setSemestre(int novoSemestre)" style="text;align=left;verticalAlign=top;spacingLeft=4;spacingRight=4;overflow=hidden;rotatable=0;points=[[0,0.5],[1,0.5]];portConstraint=eastwest;" parent="Sozwrkm8LUnKUUZ9vT8I-7" vertex="1">
          <mxGeometry y="354" width="320" height="26" as="geometry" />
        </mxCell>
        <mxCell id="Sozwrkm8LUnKUUZ9vT8I-63" value="+ deleteAlunoDisciplina(Aluno aluno)" style="text;align=left;verticalAlign=top;spacingLeft=4;spacingRight=4;overflow=hidden;rotatable=0;points=[[0,0.5],[1,0.5]];portConstraint=eastwest;" parent="Sozwrkm8LUnKUUZ9vT8I-7" vertex="1">
          <mxGeometry y="380" width="320" height="26" as="geometry" />
        </mxCell>
        <mxCell id="Sozwrkm8LUnKUUZ9vT8I-64" value="+ deleteProfessorDisciplina(Professor professor)" style="text;align=left;verticalAlign=top;spacingLeft=4;spacingRight=4;overflow=hidden;rotatable=0;points=[[0,0.5],[1,0.5]];portConstraint=eastwest;" parent="Sozwrkm8LUnKUUZ9vT8I-7" vertex="1">
          <mxGeometry y="406" width="320" height="26" as="geometry" />
        </mxCell>
        <mxCell id="Sozwrkm8LUnKUUZ9vT8I-23" value="Aluno" style="swimlane;fontStyle=1;align=center;verticalAlign=top;childLayout=stackLayout;horizontal=1;startSize=26;horizontalStack=0;resizeParent=1;resizeLast=0;collapsible=1;marginBottom=0;rounded=0;shadow=0;strokeWidth=1;fillColor=#606C38;fontSize=14;fontColor=#FFFFFF;" parent="WIyWlLk6GJQsqaUBKTNV-1" vertex="1">
          <mxGeometry x="734" y="13" width="220" height="276" as="geometry">
            <mxRectangle x="550" y="140" width="160" height="26" as="alternateBounds" />
          </mxGeometry>
        </mxCell>
        <mxCell id="Sozwrkm8LUnKUUZ9vT8I-25" value="- semestre: int" style="text;align=left;verticalAlign=top;spacingLeft=4;spacingRight=4;overflow=hidden;rotatable=0;points=[[0,0.5],[1,0.5]];portConstraint=eastwest;rounded=0;shadow=0;html=0;" parent="Sozwrkm8LUnKUUZ9vT8I-23" vertex="1">
          <mxGeometry y="26" width="220" height="26" as="geometry" />
        </mxCell>
        <mxCell id="Sozwrkm8LUnKUUZ9vT8I-26" value="- curso: String" style="text;align=left;verticalAlign=top;spacingLeft=4;spacingRight=4;overflow=hidden;rotatable=0;points=[[0,0.5],[1,0.5]];portConstraint=eastwest;rounded=0;shadow=0;html=0;" parent="Sozwrkm8LUnKUUZ9vT8I-23" vertex="1">
          <mxGeometry y="52" width="220" height="26" as="geometry" />
        </mxCell>
        <mxCell id="Sozwrkm8LUnKUUZ9vT8I-51" value="- ra: int" style="text;align=left;verticalAlign=top;spacingLeft=4;spacingRight=4;overflow=hidden;rotatable=0;points=[[0,0.5],[1,0.5]];portConstraint=eastwest;rounded=0;shadow=0;html=0;" parent="Sozwrkm8LUnKUUZ9vT8I-23" vertex="1">
          <mxGeometry y="78" width="220" height="26" as="geometry" />
        </mxCell>
        <mxCell id="Sozwrkm8LUnKUUZ9vT8I-29" value="" style="line;html=1;strokeWidth=1;align=left;verticalAlign=middle;spacingTop=-1;spacingLeft=3;spacingRight=3;rotatable=0;labelPosition=right;points=[];portConstraint=eastwest;" parent="Sozwrkm8LUnKUUZ9vT8I-23" vertex="1">
          <mxGeometry y="104" width="220" height="11" as="geometry" />
        </mxCell>
        <mxCell id="Sozwrkm8LUnKUUZ9vT8I-32" value="+ getSemestre(): int" style="text;align=left;verticalAlign=top;spacingLeft=4;spacingRight=4;overflow=hidden;rotatable=0;points=[[0,0.5],[1,0.5]];portConstraint=eastwest;" parent="Sozwrkm8LUnKUUZ9vT8I-23" vertex="1">
          <mxGeometry y="115" width="220" height="26" as="geometry" />
        </mxCell>
        <mxCell id="Sozwrkm8LUnKUUZ9vT8I-33" value="+ setSemetre(int novoSemestre)" style="text;align=left;verticalAlign=top;spacingLeft=4;spacingRight=4;overflow=hidden;rotatable=0;points=[[0,0.5],[1,0.5]];portConstraint=eastwest;" parent="Sozwrkm8LUnKUUZ9vT8I-23" vertex="1">
          <mxGeometry y="141" width="220" height="26" as="geometry" />
        </mxCell>
        <mxCell id="Sozwrkm8LUnKUUZ9vT8I-34" value="+ getCurso(): String" style="text;align=left;verticalAlign=top;spacingLeft=4;spacingRight=4;overflow=hidden;rotatable=0;points=[[0,0.5],[1,0.5]];portConstraint=eastwest;" parent="Sozwrkm8LUnKUUZ9vT8I-23" vertex="1">
          <mxGeometry y="167" width="220" height="26" as="geometry" />
        </mxCell>
        <mxCell id="Sozwrkm8LUnKUUZ9vT8I-35" value="+ setCurso(String novoCurso)" style="text;align=left;verticalAlign=top;spacingLeft=4;spacingRight=4;overflow=hidden;rotatable=0;points=[[0,0.5],[1,0.5]];portConstraint=eastwest;" parent="Sozwrkm8LUnKUUZ9vT8I-23" vertex="1">
          <mxGeometry y="193" width="220" height="26" as="geometry" />
        </mxCell>
        <mxCell id="Sozwrkm8LUnKUUZ9vT8I-52" value="+ getRa(): int" style="text;align=left;verticalAlign=top;spacingLeft=4;spacingRight=4;overflow=hidden;rotatable=0;points=[[0,0.5],[1,0.5]];portConstraint=eastwest;" parent="Sozwrkm8LUnKUUZ9vT8I-23" vertex="1">
          <mxGeometry y="219" width="220" height="26" as="geometry" />
        </mxCell>
        <mxCell id="Sozwrkm8LUnKUUZ9vT8I-53" value="+ setRa(int novoRa)" style="text;align=left;verticalAlign=top;spacingLeft=4;spacingRight=4;overflow=hidden;rotatable=0;points=[[0,0.5],[1,0.5]];portConstraint=eastwest;" parent="Sozwrkm8LUnKUUZ9vT8I-23" vertex="1">
          <mxGeometry y="245" width="220" height="26" as="geometry" />
        </mxCell>
        <mxCell id="Sozwrkm8LUnKUUZ9vT8I-40" value="Professor" style="swimlane;fontStyle=1;align=center;verticalAlign=top;childLayout=stackLayout;horizontal=1;startSize=26;horizontalStack=0;resizeParent=1;resizeLast=0;collapsible=1;marginBottom=0;rounded=0;shadow=0;strokeWidth=1;fillColor=#606C38;fontSize=14;fontColor=#FFFFFF;" parent="WIyWlLk6GJQsqaUBKTNV-1" vertex="1">
          <mxGeometry x="734" y="317" width="220" height="203" as="geometry">
            <mxRectangle x="550" y="140" width="160" height="26" as="alternateBounds" />
          </mxGeometry>
        </mxCell>
        <mxCell id="Sozwrkm8LUnKUUZ9vT8I-42" value="- disciplina: String" style="text;align=left;verticalAlign=top;spacingLeft=4;spacingRight=4;overflow=hidden;rotatable=0;points=[[0,0.5],[1,0.5]];portConstraint=eastwest;rounded=0;shadow=0;html=0;" parent="Sozwrkm8LUnKUUZ9vT8I-40" vertex="1">
          <mxGeometry y="26" width="220" height="26" as="geometry" />
        </mxCell>
        <mxCell id="Sozwrkm8LUnKUUZ9vT8I-43" value="- curso: String" style="text;align=left;verticalAlign=top;spacingLeft=4;spacingRight=4;overflow=hidden;rotatable=0;points=[[0,0.5],[1,0.5]];portConstraint=eastwest;rounded=0;shadow=0;html=0;" parent="Sozwrkm8LUnKUUZ9vT8I-40" vertex="1">
          <mxGeometry y="52" width="220" height="26" as="geometry" />
        </mxCell>
        <mxCell id="Sozwrkm8LUnKUUZ9vT8I-44" value="" style="line;html=1;strokeWidth=1;align=left;verticalAlign=middle;spacingTop=-1;spacingLeft=3;spacingRight=3;rotatable=0;labelPosition=right;points=[];portConstraint=eastwest;" parent="Sozwrkm8LUnKUUZ9vT8I-40" vertex="1">
          <mxGeometry y="78" width="220" height="16" as="geometry" />
        </mxCell>
        <mxCell id="Sozwrkm8LUnKUUZ9vT8I-47" value="+ getDisciplina(): String" style="text;align=left;verticalAlign=top;spacingLeft=4;spacingRight=4;overflow=hidden;rotatable=0;points=[[0,0.5],[1,0.5]];portConstraint=eastwest;" parent="Sozwrkm8LUnKUUZ9vT8I-40" vertex="1">
          <mxGeometry y="94" width="220" height="26" as="geometry" />
        </mxCell>
        <mxCell id="Sozwrkm8LUnKUUZ9vT8I-48" value="+ setDisciplina(String novaDisciplina)" style="text;align=left;verticalAlign=top;spacingLeft=4;spacingRight=4;overflow=hidden;rotatable=0;points=[[0,0.5],[1,0.5]];portConstraint=eastwest;" parent="Sozwrkm8LUnKUUZ9vT8I-40" vertex="1">
          <mxGeometry y="120" width="220" height="26" as="geometry" />
        </mxCell>
        <mxCell id="Sozwrkm8LUnKUUZ9vT8I-49" value="+ getCurso(): String" style="text;align=left;verticalAlign=top;spacingLeft=4;spacingRight=4;overflow=hidden;rotatable=0;points=[[0,0.5],[1,0.5]];portConstraint=eastwest;" parent="Sozwrkm8LUnKUUZ9vT8I-40" vertex="1">
          <mxGeometry y="146" width="220" height="26" as="geometry" />
        </mxCell>
        <mxCell id="Sozwrkm8LUnKUUZ9vT8I-50" value="+ setCurso(String novoCurso)" style="text;align=left;verticalAlign=top;spacingLeft=4;spacingRight=4;overflow=hidden;rotatable=0;points=[[0,0.5],[1,0.5]];portConstraint=eastwest;" parent="Sozwrkm8LUnKUUZ9vT8I-40" vertex="1">
          <mxGeometry y="172" width="220" height="26" as="geometry" />
        </mxCell>
        <mxCell id="Sozwrkm8LUnKUUZ9vT8I-54" value="" style="endArrow=none;html=1;rounded=0;exitX=1;exitY=0.5;exitDx=0;exitDy=0;strokeWidth=2;strokeColor=#606C38;" parent="WIyWlLk6GJQsqaUBKTNV-1" source="Sozwrkm8LUnKUUZ9vT8I-58" edge="1">
          <mxGeometry width="50" height="50" relative="1" as="geometry">
            <mxPoint x="730" y="200" as="sourcePoint" />
            <mxPoint x="733" y="151" as="targetPoint" />
          </mxGeometry>
        </mxCell>
        <mxCell id="Sozwrkm8LUnKUUZ9vT8I-55" value="" style="endArrow=none;html=1;rounded=0;exitX=1;exitY=1;exitDx=0;exitDy=0;startArrow=none;strokeWidth=2;entryX=0;entryY=0.068;entryDx=0;entryDy=0;entryPerimeter=0;strokeColor=#606C38;" parent="WIyWlLk6GJQsqaUBKTNV-1" source="Sozwrkm8LUnKUUZ9vT8I-56" target="Sozwrkm8LUnKUUZ9vT8I-40" edge="1">
          <mxGeometry width="50" height="50" relative="1" as="geometry">
            <mxPoint x="690" y="324.01" as="sourcePoint" />
            <mxPoint x="721" y="355" as="targetPoint" />
          </mxGeometry>
        </mxCell>
        <mxCell id="Sozwrkm8LUnKUUZ9vT8I-56" value="" style="rhombus;whiteSpace=wrap;html=1;strokeColor=#606C38;strokeWidth=2;" parent="WIyWlLk6GJQsqaUBKTNV-1" vertex="1">
          <mxGeometry x="635" y="306" width="20" height="21" as="geometry" />
        </mxCell>
        <mxCell id="Sozwrkm8LUnKUUZ9vT8I-58" value="" style="rhombus;whiteSpace=wrap;html=1;strokeWidth=2;strokeColor=#606C38;" parent="WIyWlLk6GJQsqaUBKTNV-1" vertex="1">
          <mxGeometry x="635" y="161" width="21" height="23" as="geometry" />
        </mxCell>
      </root>
    </mxGraphModel>
  </diagram>
</mxfile>
